<?xml version="1.0" encoding="utf-8"?>
<!DOCTYPE svg PUBLIC "-//W3C//DTD SVG 1.0//EN" "http://www.w3.org/TR/2001/REC-SVG-20010904/DTD/svg10.dtd">
<svg xmlns="http://www.w3.org/2000/svg" xml:space="preserve" xmlns:xlink="http://www.w3.org/1999/xlink" width="410" height="410" viewBox="0 0 410 410">
<desc></desc>
<rect width="410" height="410" fill="#ffffff" cx="0" cy="0" />
<defs>
<rect id="p" width="10" height="10" />
</defs>
<g fill="#000000">
<use x="20" y="20" xlink:href="#p" />
<use x="30" y="20" xlink:href="#p" />
<use x="40" y="20" xlink:href="#p" />
<use x="50" y="20" xlink:href="#p" />
<use x="60" y="20" xlink:href="#p" />
<use x="70" y="20" xlink:href="#p" />
<use x="80" y="20" xlink:href="#p" />
<use x="110" y="20" xlink:href="#p" />
<use x="160" y="20" xlink:href="#p" />
<use x="180" y="20" xlink:href="#p" />
<use x="190" y="20" xlink:href="#p" />
<use x="200" y="20" xlink:href="#p" />
<use x="210" y="20" xlink:href="#p" />
<use x="250" y="20" xlink:href="#p" />
<use x="280" y="20" xlink:href="#p" />
<use x="300" y="20" xlink:href="#p" />
<use x="320" y="20" xlink:href="#p" />
<use x="330" y="20" xlink:href="#p" />
<use x="340" y="20" xlink:href="#p" />
<use x="350" y="20" xlink:href="#p" />
<use x="360" y="20" xlink:href="#p" />
<use x="370" y="20" xlink:href="#p" />
<use x="380" y="20" xlink:href="#p" />
<use x="20" y="30" xlink:href="#p" />
<use x="80" y="30" xlink:href="#p" />
<use x="100" y="30" xlink:href="#p" />
<use x="110" y="30" xlink:href="#p" />
<use x="130" y="30" xlink:href="#p" />
<use x="140" y="30" xlink:href="#p" />
<use x="150" y="30" xlink:href="#p" />
<use x="170" y="30" xlink:href="#p" />
<use x="180" y="30" xlink:href="#p" />
<use x="190" y="30" xlink:href="#p" />
<use x="220" y="30" xlink:href="#p" />
<use x="230" y="30" xlink:href="#p" />
<use x="240" y="30" xlink:href="#p" />
<use x="260" y="30" xlink:href="#p" />
<use x="290" y="30" xlink:href="#p" />
<use x="320" y="30" xlink:href="#p" />
<use x="380" y="30" xlink:href="#p" />
<use x="20" y="40" xlink:href="#p" />
<use x="40" y="40" xlink:href="#p" />
<use x="50" y="40" xlink:href="#p" />
<use x="60" y="40" xlink:href="#p" />
<use x="80" y="40" xlink:href="#p" />
<use x="110" y="40" xlink:href="#p" />
<use x="120" y="40" xlink:href="#p" />
<use x="130" y="40" xlink:href="#p" />
<use x="180" y="40" xlink:href="#p" />
<use x="200" y="40" xlink:href="#p" />
<use x="230" y="40" xlink:href="#p" />
<use x="240" y="40" xlink:href="#p" />
<use x="250" y="40" xlink:href="#p" />
<use x="290" y="40" xlink:href="#p" />
<use x="320" y="40" xlink:href="#p" />
<use x="340" y="40" xlink:href="#p" />
<use x="350" y="40" xlink:href="#p" />
<use x="360" y="40" xlink:href="#p" />
<use x="380" y="40" xlink:href="#p" />
<use x="20" y="50" xlink:href="#p" />
<use x="40" y="50" xlink:href="#p" />
<use x="50" y="50" xlink:href="#p" />
<use x="60" y="50" xlink:href="#p" />
<use x="80" y="50" xlink:href="#p" />
<use x="100" y="50" xlink:href="#p" />
<use x="110" y="50" xlink:href="#p" />
<use x="130" y="50" xlink:href="#p" />
<use x="160" y="50" xlink:href="#p" />
<use x="190" y="50" xlink:href="#p" />
<use x="240" y="50" xlink:href="#p" />
<use x="250" y="50" xlink:href="#p" />
<use x="260" y="50" xlink:href="#p" />
<use x="270" y="50" xlink:href="#p" />
<use x="280" y="50" xlink:href="#p" />
<use x="290" y="50" xlink:href="#p" />
<use x="300" y="50" xlink:href="#p" />
<use x="320" y="50" xlink:href="#p" />
<use x="340" y="50" xlink:href="#p" />
<use x="350" y="50" xlink:href="#p" />
<use x="360" y="50" xlink:href="#p" />
<use x="380" y="50" xlink:href="#p" />
<use x="20" y="60" xlink:href="#p" />
<use x="40" y="60" xlink:href="#p" />
<use x="50" y="60" xlink:href="#p" />
<use x="60" y="60" xlink:href="#p" />
<use x="80" y="60" xlink:href="#p" />
<use x="120" y="60" xlink:href="#p" />
<use x="140" y="60" xlink:href="#p" />
<use x="150" y="60" xlink:href="#p" />
<use x="160" y="60" xlink:href="#p" />
<use x="180" y="60" xlink:href="#p" />
<use x="200" y="60" xlink:href="#p" />
<use x="210" y="60" xlink:href="#p" />
<use x="220" y="60" xlink:href="#p" />
<use x="250" y="60" xlink:href="#p" />
<use x="260" y="60" xlink:href="#p" />
<use x="280" y="60" xlink:href="#p" />
<use x="300" y="60" xlink:href="#p" />
<use x="320" y="60" xlink:href="#p" />
<use x="340" y="60" xlink:href="#p" />
<use x="350" y="60" xlink:href="#p" />
<use x="360" y="60" xlink:href="#p" />
<use x="380" y="60" xlink:href="#p" />
<use x="20" y="70" xlink:href="#p" />
<use x="80" y="70" xlink:href="#p" />
<use x="100" y="70" xlink:href="#p" />
<use x="120" y="70" xlink:href="#p" />
<use x="150" y="70" xlink:href="#p" />
<use x="160" y="70" xlink:href="#p" />
<use x="170" y="70" xlink:href="#p" />
<use x="200" y="70" xlink:href="#p" />
<use x="220" y="70" xlink:href="#p" />
<use x="230" y="70" xlink:href="#p" />
<use x="270" y="70" xlink:href="#p" />
<use x="290" y="70" xlink:href="#p" />
<use x="300" y="70" xlink:href="#p" />
<use x="320" y="70" xlink:href="#p" />
<use x="380" y="70" xlink:href="#p" />
<use x="20" y="80" xlink:href="#p" />
<use x="30" y="80" xlink:href="#p" />
<use x="40" y="80" xlink:href="#p" />
<use x="50" y="80" xlink:href="#p" />
<use x="60" y="80" xlink:href="#p" />
<use x="70" y="80" xlink:href="#p" />
<use x="80" y="80" xlink:href="#p" />
<use x="100" y="80" xlink:href="#p" />
<use x="120" y="80" xlink:href="#p" />
<use x="140" y="80" xlink:href="#p" />
<use x="160" y="80" xlink:href="#p" />
<use x="180" y="80" xlink:href="#p" />
<use x="200" y="80" xlink:href="#p" />
<use x="220" y="80" xlink:href="#p" />
<use x="240" y="80" xlink:href="#p" />
<use x="260" y="80" xlink:href="#p" />
<use x="280" y="80" xlink:href="#p" />
<use x="300" y="80" xlink:href="#p" />
<use x="320" y="80" xlink:href="#p" />
<use x="330" y="80" xlink:href="#p" />
<use x="340" y="80" xlink:href="#p" />
<use x="350" y="80" xlink:href="#p" />
<use x="360" y="80" xlink:href="#p" />
<use x="370" y="80" xlink:href="#p" />
<use x="380" y="80" xlink:href="#p" />
<use x="140" y="90" xlink:href="#p" />
<use x="160" y="90" xlink:href="#p" />
<use x="180" y="90" xlink:href="#p" />
<use x="210" y="90" xlink:href="#p" />
<use x="220" y="90" xlink:href="#p" />
<use x="230" y="90" xlink:href="#p" />
<use x="240" y="90" xlink:href="#p" />
<use x="280" y="90" xlink:href="#p" />
<use x="290" y="90" xlink:href="#p" />
<use x="20" y="100" xlink:href="#p" />
<use x="30" y="100" xlink:href="#p" />
<use x="40" y="100" xlink:href="#p" />
<use x="50" y="100" xlink:href="#p" />
<use x="60" y="100" xlink:href="#p" />
<use x="80" y="100" xlink:href="#p" />
<use x="90" y="100" xlink:href="#p" />
<use x="100" y="100" xlink:href="#p" />
<use x="110" y="100" xlink:href="#p" />
<use x="120" y="100" xlink:href="#p" />
<use x="140" y="100" xlink:href="#p" />
<use x="150" y="100" xlink:href="#p" />
<use x="160" y="100" xlink:href="#p" />
<use x="170" y="100" xlink:href="#p" />
<use x="190" y="100" xlink:href="#p" />
<use x="220" y="100" xlink:href="#p" />
<use x="240" y="100" xlink:href="#p" />
<use x="250" y="100" xlink:href="#p" />
<use x="260" y="100" xlink:href="#p" />
<use x="270" y="100" xlink:href="#p" />
<use x="290" y="100" xlink:href="#p" />
<use x="310" y="100" xlink:href="#p" />
<use x="330" y="100" xlink:href="#p" />
<use x="350" y="100" xlink:href="#p" />
<use x="370" y="100" xlink:href="#p" />
<use x="40" y="110" xlink:href="#p" />
<use x="50" y="110" xlink:href="#p" />
<use x="60" y="110" xlink:href="#p" />
<use x="100" y="110" xlink:href="#p" />
<use x="110" y="110" xlink:href="#p" />
<use x="180" y="110" xlink:href="#p" />
<use x="210" y="110" xlink:href="#p" />
<use x="220" y="110" xlink:href="#p" />
<use x="230" y="110" xlink:href="#p" />
<use x="250" y="110" xlink:href="#p" />
<use x="270" y="110" xlink:href="#p" />
<use x="300" y="110" xlink:href="#p" />
<use x="330" y="110" xlink:href="#p" />
<use x="350" y="110" xlink:href="#p" />
<use x="360" y="110" xlink:href="#p" />
<use x="370" y="110" xlink:href="#p" />
<use x="40" y="120" xlink:href="#p" />
<use x="50" y="120" xlink:href="#p" />
<use x="70" y="120" xlink:href="#p" />
<use x="80" y="120" xlink:href="#p" />
<use x="100" y="120" xlink:href="#p" />
<use x="110" y="120" xlink:href="#p" />
<use x="120" y="120" xlink:href="#p" />
<use x="130" y="120" xlink:href="#p" />
<use x="140" y="120" xlink:href="#p" />
<use x="170" y="120" xlink:href="#p" />
<use x="180" y="120" xlink:href="#p" />
<use x="200" y="120" xlink:href="#p" />
<use x="220" y="120" xlink:href="#p" />
<use x="270" y="120" xlink:href="#p" />
<use x="280" y="120" xlink:href="#p" />
<use x="290" y="120" xlink:href="#p" />
<use x="300" y="120" xlink:href="#p" />
<use x="310" y="120" xlink:href="#p" />
<use x="320" y="120" xlink:href="#p" />
<use x="350" y="120" xlink:href="#p" />
<use x="360" y="120" xlink:href="#p" />
<use x="380" y="120" xlink:href="#p" />
<use x="20" y="130" xlink:href="#p" />
<use x="30" y="130" xlink:href="#p" />
<use x="70" y="130" xlink:href="#p" />
<use x="90" y="130" xlink:href="#p" />
<use x="100" y="130" xlink:href="#p" />
<use x="110" y="130" xlink:href="#p" />
<use x="130" y="130" xlink:href="#p" />
<use x="160" y="130" xlink:href="#p" />
<use x="180" y="130" xlink:href="#p" />
<use x="200" y="130" xlink:href="#p" />
<use x="230" y="130" xlink:href="#p" />
<use x="240" y="130" xlink:href="#p" />
<use x="250" y="130" xlink:href="#p" />
<use x="280" y="130" xlink:href="#p" />
<use x="300" y="130" xlink:href="#p" />
<use x="310" y="130" xlink:href="#p" />
<use x="320" y="130" xlink:href="#p" />
<use x="330" y="130" xlink:href="#p" />
<use x="340" y="130" xlink:href="#p" />
<use x="350" y="130" xlink:href="#p" />
<use x="370" y="130" xlink:href="#p" />
<use x="20" y="140" xlink:href="#p" />
<use x="50" y="140" xlink:href="#p" />
<use x="70" y="140" xlink:href="#p" />
<use x="80" y="140" xlink:href="#p" />
<use x="90" y="140" xlink:href="#p" />
<use x="100" y="140" xlink:href="#p" />
<use x="110" y="140" xlink:href="#p" />
<use x="130" y="140" xlink:href="#p" />
<use x="150" y="140" xlink:href="#p" />
<use x="160" y="140" xlink:href="#p" />
<use x="180" y="140" xlink:href="#p" />
<use x="190" y="140" xlink:href="#p" />
<use x="240" y="140" xlink:href="#p" />
<use x="250" y="140" xlink:href="#p" />
<use x="260" y="140" xlink:href="#p" />
<use x="270" y="140" xlink:href="#p" />
<use x="280" y="140" xlink:href="#p" />
<use x="320" y="140" xlink:href="#p" />
<use x="340" y="140" xlink:href="#p" />
<use x="350" y="140" xlink:href="#p" />
<use x="360" y="140" xlink:href="#p" />
<use x="380" y="140" xlink:href="#p" />
<use x="20" y="150" xlink:href="#p" />
<use x="30" y="150" xlink:href="#p" />
<use x="40" y="150" xlink:href="#p" />
<use x="50" y="150" xlink:href="#p" />
<use x="60" y="150" xlink:href="#p" />
<use x="70" y="150" xlink:href="#p" />
<use x="90" y="150" xlink:href="#p" />
<use x="140" y="150" xlink:href="#p" />
<use x="150" y="150" xlink:href="#p" />
<use x="170" y="150" xlink:href="#p" />
<use x="180" y="150" xlink:href="#p" />
<use x="210" y="150" xlink:href="#p" />
<use x="220" y="150" xlink:href="#p" />
<use x="250" y="150" xlink:href="#p" />
<use x="330" y="150" xlink:href="#p" />
<use x="360" y="150" xlink:href="#p" />
<use x="370" y="150" xlink:href="#p" />
<use x="20" y="160" xlink:href="#p" />
<use x="70" y="160" xlink:href="#p" />
<use x="80" y="160" xlink:href="#p" />
<use x="100" y="160" xlink:href="#p" />
<use x="110" y="160" xlink:href="#p" />
<use x="120" y="160" xlink:href="#p" />
<use x="150" y="160" xlink:href="#p" />
<use x="160" y="160" xlink:href="#p" />
<use x="170" y="160" xlink:href="#p" />
<use x="180" y="160" xlink:href="#p" />
<use x="200" y="160" xlink:href="#p" />
<use x="230" y="160" xlink:href="#p" />
<use x="280" y="160" xlink:href="#p" />
<use x="290" y="160" xlink:href="#p" />
<use x="300" y="160" xlink:href="#p" />
<use x="310" y="160" xlink:href="#p" />
<use x="330" y="160" xlink:href="#p" />
<use x="340" y="160" xlink:href="#p" />
<use x="360" y="160" xlink:href="#p" />
<use x="370" y="160" xlink:href="#p" />
<use x="380" y="160" xlink:href="#p" />
<use x="30" y="170" xlink:href="#p" />
<use x="90" y="170" xlink:href="#p" />
<use x="100" y="170" xlink:href="#p" />
<use x="110" y="170" xlink:href="#p" />
<use x="140" y="170" xlink:href="#p" />
<use x="180" y="170" xlink:href="#p" />
<use x="200" y="170" xlink:href="#p" />
<use x="210" y="170" xlink:href="#p" />
<use x="230" y="170" xlink:href="#p" />
<use x="250" y="170" xlink:href="#p" />
<use x="260" y="170" xlink:href="#p" />
<use x="290" y="170" xlink:href="#p" />
<use x="300" y="170" xlink:href="#p" />
<use x="330" y="170" xlink:href="#p" />
<use x="350" y="170" xlink:href="#p" />
<use x="380" y="170" xlink:href="#p" />
<use x="30" y="180" xlink:href="#p" />
<use x="40" y="180" xlink:href="#p" />
<use x="50" y="180" xlink:href="#p" />
<use x="80" y="180" xlink:href="#p" />
<use x="100" y="180" xlink:href="#p" />
<use x="110" y="180" xlink:href="#p" />
<use x="120" y="180" xlink:href="#p" />
<use x="140" y="180" xlink:href="#p" />
<use x="150" y="180" xlink:href="#p" />
<use x="160" y="180" xlink:href="#p" />
<use x="190" y="180" xlink:href="#p" />
<use x="200" y="180" xlink:href="#p" />
<use x="210" y="180" xlink:href="#p" />
<use x="220" y="180" xlink:href="#p" />
<use x="240" y="180" xlink:href="#p" />
<use x="260" y="180" xlink:href="#p" />
<use x="270" y="180" xlink:href="#p" />
<use x="280" y="180" xlink:href="#p" />
<use x="290" y="180" xlink:href="#p" />
<use x="310" y="180" xlink:href="#p" />
<use x="320" y="180" xlink:href="#p" />
<use x="340" y="180" xlink:href="#p" />
<use x="350" y="180" xlink:href="#p" />
<use x="360" y="180" xlink:href="#p" />
<use x="380" y="180" xlink:href="#p" />
<use x="20" y="190" xlink:href="#p" />
<use x="30" y="190" xlink:href="#p" />
<use x="40" y="190" xlink:href="#p" />
<use x="70" y="190" xlink:href="#p" />
<use x="110" y="190" xlink:href="#p" />
<use x="120" y="190" xlink:href="#p" />
<use x="180" y="190" xlink:href="#p" />
<use x="190" y="190" xlink:href="#p" />
<use x="200" y="190" xlink:href="#p" />
<use x="210" y="190" xlink:href="#p" />
<use x="220" y="190" xlink:href="#p" />
<use x="250" y="190" xlink:href="#p" />
<use x="300" y="190" xlink:href="#p" />
<use x="330" y="190" xlink:href="#p" />
<use x="360" y="190" xlink:href="#p" />
<use x="370" y="190" xlink:href="#p" />
<use x="30" y="200" xlink:href="#p" />
<use x="40" y="200" xlink:href="#p" />
<use x="50" y="200" xlink:href="#p" />
<use x="70" y="200" xlink:href="#p" />
<use x="80" y="200" xlink:href="#p" />
<use x="90" y="200" xlink:href="#p" />
<use x="100" y="200" xlink:href="#p" />
<use x="110" y="200" xlink:href="#p" />
<use x="130" y="200" xlink:href="#p" />
<use x="140" y="200" xlink:href="#p" />
<use x="160" y="200" xlink:href="#p" />
<use x="170" y="200" xlink:href="#p" />
<use x="190" y="200" xlink:href="#p" />
<use x="220" y="200" xlink:href="#p" />
<use x="230" y="200" xlink:href="#p" />
<use x="280" y="200" xlink:href="#p" />
<use x="290" y="200" xlink:href="#p" />
<use x="320" y="200" xlink:href="#p" />
<use x="330" y="200" xlink:href="#p" />
<use x="340" y="200" xlink:href="#p" />
<use x="360" y="200" xlink:href="#p" />
<use x="370" y="200" xlink:href="#p" />
<use x="380" y="200" xlink:href="#p" />
<use x="20" y="210" xlink:href="#p" />
<use x="30" y="210" xlink:href="#p" />
<use x="90" y="210" xlink:href="#p" />
<use x="130" y="210" xlink:href="#p" />
<use x="170" y="210" xlink:href="#p" />
<use x="180" y="210" xlink:href="#p" />
<use x="200" y="210" xlink:href="#p" />
<use x="230" y="210" xlink:href="#p" />
<use x="240" y="210" xlink:href="#p" />
<use x="280" y="210" xlink:href="#p" />
<use x="310" y="210" xlink:href="#p" />
<use x="330" y="210" xlink:href="#p" />
<use x="340" y="210" xlink:href="#p" />
<use x="380" y="210" xlink:href="#p" />
<use x="20" y="220" xlink:href="#p" />
<use x="30" y="220" xlink:href="#p" />
<use x="60" y="220" xlink:href="#p" />
<use x="80" y="220" xlink:href="#p" />
<use x="90" y="220" xlink:href="#p" />
<use x="100" y="220" xlink:href="#p" />
<use x="110" y="220" xlink:href="#p" />
<use x="130" y="220" xlink:href="#p" />
<use x="150" y="220" xlink:href="#p" />
<use x="160" y="220" xlink:href="#p" />
<use x="170" y="220" xlink:href="#p" />
<use x="180" y="220" xlink:href="#p" />
<use x="190" y="220" xlink:href="#p" />
<use x="240" y="220" xlink:href="#p" />
<use x="250" y="220" xlink:href="#p" />
<use x="270" y="220" xlink:href="#p" />
<use x="280" y="220" xlink:href="#p" />
<use x="290" y="220" xlink:href="#p" />
<use x="300" y="220" xlink:href="#p" />
<use x="310" y="220" xlink:href="#p" />
<use x="320" y="220" xlink:href="#p" />
<use x="340" y="220" xlink:href="#p" />
<use x="360" y="220" xlink:href="#p" />
<use x="370" y="220" xlink:href="#p" />
<use x="380" y="220" xlink:href="#p" />
<use x="20" y="230" xlink:href="#p" />
<use x="40" y="230" xlink:href="#p" />
<use x="50" y="230" xlink:href="#p" />
<use x="70" y="230" xlink:href="#p" />
<use x="100" y="230" xlink:href="#p" />
<use x="110" y="230" xlink:href="#p" />
<use x="120" y="230" xlink:href="#p" />
<use x="140" y="230" xlink:href="#p" />
<use x="160" y="230" xlink:href="#p" />
<use x="180" y="230" xlink:href="#p" />
<use x="190" y="230" xlink:href="#p" />
<use x="200" y="230" xlink:href="#p" />
<use x="210" y="230" xlink:href="#p" />
<use x="220" y="230" xlink:href="#p" />
<use x="250" y="230" xlink:href="#p" />
<use x="260" y="230" xlink:href="#p" />
<use x="280" y="230" xlink:href="#p" />
<use x="300" y="230" xlink:href="#p" />
<use x="330" y="230" xlink:href="#p" />
<use x="350" y="230" xlink:href="#p" />
<use x="370" y="230" xlink:href="#p" />
<use x="30" y="240" xlink:href="#p" />
<use x="80" y="240" xlink:href="#p" />
<use x="90" y="240" xlink:href="#p" />
<use x="100" y="240" xlink:href="#p" />
<use x="150" y="240" xlink:href="#p" />
<use x="170" y="240" xlink:href="#p" />
<use x="180" y="240" xlink:href="#p" />
<use x="220" y="240" xlink:href="#p" />
<use x="240" y="240" xlink:href="#p" />
<use x="260" y="240" xlink:href="#p" />
<use x="280" y="240" xlink:href="#p" />
<use x="290" y="240" xlink:href="#p" />
<use x="300" y="240" xlink:href="#p" />
<use x="310" y="240" xlink:href="#p" />
<use x="330" y="240" xlink:href="#p" />
<use x="340" y="240" xlink:href="#p" />
<use x="350" y="240" xlink:href="#p" />
<use x="370" y="240" xlink:href="#p" />
<use x="380" y="240" xlink:href="#p" />
<use x="50" y="250" xlink:href="#p" />
<use x="70" y="250" xlink:href="#p" />
<use x="100" y="250" xlink:href="#p" />
<use x="110" y="250" xlink:href="#p" />
<use x="120" y="250" xlink:href="#p" />
<use x="140" y="250" xlink:href="#p" />
<use x="200" y="250" xlink:href="#p" />
<use x="210" y="250" xlink:href="#p" />
<use x="230" y="250" xlink:href="#p" />
<use x="300" y="250" xlink:href="#p" />
<use x="310" y="250" xlink:href="#p" />
<use x="330" y="250" xlink:href="#p" />
<use x="340" y="250" xlink:href="#p" />
<use x="380" y="250" xlink:href="#p" />
<use x="40" y="260" xlink:href="#p" />
<use x="70" y="260" xlink:href="#p" />
<use x="80" y="260" xlink:href="#p" />
<use x="90" y="260" xlink:href="#p" />
<use x="140" y="260" xlink:href="#p" />
<use x="150" y="260" xlink:href="#p" />
<use x="160" y="260" xlink:href="#p" />
<use x="170" y="260" xlink:href="#p" />
<use x="190" y="260" xlink:href="#p" />
<use x="210" y="260" xlink:href="#p" />
<use x="240" y="260" xlink:href="#p" />
<use x="260" y="260" xlink:href="#p" />
<use x="270" y="260" xlink:href="#p" />
<use x="280" y="260" xlink:href="#p" />
<use x="310" y="260" xlink:href="#p" />
<use x="320" y="260" xlink:href="#p" />
<use x="340" y="260" xlink:href="#p" />
<use x="350" y="260" xlink:href="#p" />
<use x="360" y="260" xlink:href="#p" />
<use x="370" y="260" xlink:href="#p" />
<use x="380" y="260" xlink:href="#p" />
<use x="20" y="270" xlink:href="#p" />
<use x="30" y="270" xlink:href="#p" />
<use x="40" y="270" xlink:href="#p" />
<use x="60" y="270" xlink:href="#p" />
<use x="90" y="270" xlink:href="#p" />
<use x="110" y="270" xlink:href="#p" />
<use x="120" y="270" xlink:href="#p" />
<use x="150" y="270" xlink:href="#p" />
<use x="180" y="270" xlink:href="#p" />
<use x="190" y="270" xlink:href="#p" />
<use x="200" y="270" xlink:href="#p" />
<use x="210" y="270" xlink:href="#p" />
<use x="220" y="270" xlink:href="#p" />
<use x="230" y="270" xlink:href="#p" />
<use x="250" y="270" xlink:href="#p" />
<use x="300" y="270" xlink:href="#p" />
<use x="330" y="270" xlink:href="#p" />
<use x="360" y="270" xlink:href="#p" />
<use x="370" y="270" xlink:href="#p" />
<use x="20" y="280" xlink:href="#p" />
<use x="60" y="280" xlink:href="#p" />
<use x="80" y="280" xlink:href="#p" />
<use x="90" y="280" xlink:href="#p" />
<use x="130" y="280" xlink:href="#p" />
<use x="140" y="280" xlink:href="#p" />
<use x="150" y="280" xlink:href="#p" />
<use x="160" y="280" xlink:href="#p" />
<use x="170" y="280" xlink:href="#p" />
<use x="180" y="280" xlink:href="#p" />
<use x="200" y="280" xlink:href="#p" />
<use x="220" y="280" xlink:href="#p" />
<use x="230" y="280" xlink:href="#p" />
<use x="290" y="280" xlink:href="#p" />
<use x="310" y="280" xlink:href="#p" />
<use x="330" y="280" xlink:href="#p" />
<use x="340" y="280" xlink:href="#p" />
<use x="350" y="280" xlink:href="#p" />
<use x="370" y="280" xlink:href="#p" />
<use x="380" y="280" xlink:href="#p" />
<use x="20" y="290" xlink:href="#p" />
<use x="40" y="290" xlink:href="#p" />
<use x="70" y="290" xlink:href="#p" />
<use x="90" y="290" xlink:href="#p" />
<use x="110" y="290" xlink:href="#p" />
<use x="130" y="290" xlink:href="#p" />
<use x="160" y="290" xlink:href="#p" />
<use x="170" y="290" xlink:href="#p" />
<use x="220" y="290" xlink:href="#p" />
<use x="230" y="290" xlink:href="#p" />
<use x="240" y="290" xlink:href="#p" />
<use x="260" y="290" xlink:href="#p" />
<use x="280" y="290" xlink:href="#p" />
<use x="290" y="290" xlink:href="#p" />
<use x="300" y="290" xlink:href="#p" />
<use x="310" y="290" xlink:href="#p" />
<use x="320" y="290" xlink:href="#p" />
<use x="330" y="290" xlink:href="#p" />
<use x="380" y="290" xlink:href="#p" />
<use x="20" y="300" xlink:href="#p" />
<use x="40" y="300" xlink:href="#p" />
<use x="50" y="300" xlink:href="#p" />
<use x="80" y="300" xlink:href="#p" />
<use x="130" y="300" xlink:href="#p" />
<use x="150" y="300" xlink:href="#p" />
<use x="160" y="300" xlink:href="#p" />
<use x="190" y="300" xlink:href="#p" />
<use x="220" y="300" xlink:href="#p" />
<use x="240" y="300" xlink:href="#p" />
<use x="250" y="300" xlink:href="#p" />
<use x="260" y="300" xlink:href="#p" />
<use x="270" y="300" xlink:href="#p" />
<use x="280" y="300" xlink:href="#p" />
<use x="290" y="300" xlink:href="#p" />
<use x="300" y="300" xlink:href="#p" />
<use x="310" y="300" xlink:href="#p" />
<use x="320" y="300" xlink:href="#p" />
<use x="330" y="300" xlink:href="#p" />
<use x="340" y="300" xlink:href="#p" />
<use x="350" y="300" xlink:href="#p" />
<use x="360" y="300" xlink:href="#p" />
<use x="100" y="310" xlink:href="#p" />
<use x="140" y="310" xlink:href="#p" />
<use x="150" y="310" xlink:href="#p" />
<use x="180" y="310" xlink:href="#p" />
<use x="190" y="310" xlink:href="#p" />
<use x="200" y="310" xlink:href="#p" />
<use x="210" y="310" xlink:href="#p" />
<use x="220" y="310" xlink:href="#p" />
<use x="230" y="310" xlink:href="#p" />
<use x="240" y="310" xlink:href="#p" />
<use x="250" y="310" xlink:href="#p" />
<use x="270" y="310" xlink:href="#p" />
<use x="300" y="310" xlink:href="#p" />
<use x="340" y="310" xlink:href="#p" />
<use x="350" y="310" xlink:href="#p" />
<use x="20" y="320" xlink:href="#p" />
<use x="30" y="320" xlink:href="#p" />
<use x="40" y="320" xlink:href="#p" />
<use x="50" y="320" xlink:href="#p" />
<use x="60" y="320" xlink:href="#p" />
<use x="70" y="320" xlink:href="#p" />
<use x="80" y="320" xlink:href="#p" />
<use x="100" y="320" xlink:href="#p" />
<use x="110" y="320" xlink:href="#p" />
<use x="120" y="320" xlink:href="#p" />
<use x="170" y="320" xlink:href="#p" />
<use x="190" y="320" xlink:href="#p" />
<use x="300" y="320" xlink:href="#p" />
<use x="320" y="320" xlink:href="#p" />
<use x="340" y="320" xlink:href="#p" />
<use x="370" y="320" xlink:href="#p" />
<use x="380" y="320" xlink:href="#p" />
<use x="20" y="330" xlink:href="#p" />
<use x="80" y="330" xlink:href="#p" />
<use x="140" y="330" xlink:href="#p" />
<use x="160" y="330" xlink:href="#p" />
<use x="170" y="330" xlink:href="#p" />
<use x="180" y="330" xlink:href="#p" />
<use x="200" y="330" xlink:href="#p" />
<use x="210" y="330" xlink:href="#p" />
<use x="220" y="330" xlink:href="#p" />
<use x="230" y="330" xlink:href="#p" />
<use x="250" y="330" xlink:href="#p" />
<use x="280" y="330" xlink:href="#p" />
<use x="300" y="330" xlink:href="#p" />
<use x="340" y="330" xlink:href="#p" />
<use x="370" y="330" xlink:href="#p" />
<use x="20" y="340" xlink:href="#p" />
<use x="40" y="340" xlink:href="#p" />
<use x="50" y="340" xlink:href="#p" />
<use x="60" y="340" xlink:href="#p" />
<use x="80" y="340" xlink:href="#p" />
<use x="100" y="340" xlink:href="#p" />
<use x="110" y="340" xlink:href="#p" />
<use x="140" y="340" xlink:href="#p" />
<use x="150" y="340" xlink:href="#p" />
<use x="160" y="340" xlink:href="#p" />
<use x="170" y="340" xlink:href="#p" />
<use x="190" y="340" xlink:href="#p" />
<use x="210" y="340" xlink:href="#p" />
<use x="240" y="340" xlink:href="#p" />
<use x="250" y="340" xlink:href="#p" />
<use x="270" y="340" xlink:href="#p" />
<use x="280" y="340" xlink:href="#p" />
<use x="290" y="340" xlink:href="#p" />
<use x="300" y="340" xlink:href="#p" />
<use x="310" y="340" xlink:href="#p" />
<use x="320" y="340" xlink:href="#p" />
<use x="330" y="340" xlink:href="#p" />
<use x="340" y="340" xlink:href="#p" />
<use x="360" y="340" xlink:href="#p" />
<use x="370" y="340" xlink:href="#p" />
<use x="20" y="350" xlink:href="#p" />
<use x="40" y="350" xlink:href="#p" />
<use x="50" y="350" xlink:href="#p" />
<use x="60" y="350" xlink:href="#p" />
<use x="80" y="350" xlink:href="#p" />
<use x="100" y="350" xlink:href="#p" />
<use x="110" y="350" xlink:href="#p" />
<use x="180" y="350" xlink:href="#p" />
<use x="200" y="350" xlink:href="#p" />
<use x="210" y="350" xlink:href="#p" />
<use x="220" y="350" xlink:href="#p" />
<use x="250" y="350" xlink:href="#p" />
<use x="260" y="350" xlink:href="#p" />
<use x="270" y="350" xlink:href="#p" />
<use x="300" y="350" xlink:href="#p" />
<use x="320" y="350" xlink:href="#p" />
<use x="340" y="350" xlink:href="#p" />
<use x="350" y="350" xlink:href="#p" />
<use x="360" y="350" xlink:href="#p" />
<use x="370" y="350" xlink:href="#p" />
<use x="380" y="350" xlink:href="#p" />
<use x="20" y="360" xlink:href="#p" />
<use x="40" y="360" xlink:href="#p" />
<use x="50" y="360" xlink:href="#p" />
<use x="60" y="360" xlink:href="#p" />
<use x="80" y="360" xlink:href="#p" />
<use x="100" y="360" xlink:href="#p" />
<use x="110" y="360" xlink:href="#p" />
<use x="130" y="360" xlink:href="#p" />
<use x="140" y="360" xlink:href="#p" />
<use x="160" y="360" xlink:href="#p" />
<use x="170" y="360" xlink:href="#p" />
<use x="180" y="360" xlink:href="#p" />
<use x="200" y="360" xlink:href="#p" />
<use x="220" y="360" xlink:href="#p" />
<use x="230" y="360" xlink:href="#p" />
<use x="280" y="360" xlink:href="#p" />
<use x="290" y="360" xlink:href="#p" />
<use x="330" y="360" xlink:href="#p" />
<use x="370" y="360" xlink:href="#p" />
<use x="380" y="360" xlink:href="#p" />
<use x="20" y="370" xlink:href="#p" />
<use x="80" y="370" xlink:href="#p" />
<use x="100" y="370" xlink:href="#p" />
<use x="120" y="370" xlink:href="#p" />
<use x="130" y="370" xlink:href="#p" />
<use x="180" y="370" xlink:href="#p" />
<use x="210" y="370" xlink:href="#p" />
<use x="220" y="370" xlink:href="#p" />
<use x="230" y="370" xlink:href="#p" />
<use x="240" y="370" xlink:href="#p" />
<use x="250" y="370" xlink:href="#p" />
<use x="260" y="370" xlink:href="#p" />
<use x="300" y="370" xlink:href="#p" />
<use x="310" y="370" xlink:href="#p" />
<use x="340" y="370" xlink:href="#p" />
<use x="350" y="370" xlink:href="#p" />
<use x="380" y="370" xlink:href="#p" />
<use x="20" y="380" xlink:href="#p" />
<use x="30" y="380" xlink:href="#p" />
<use x="40" y="380" xlink:href="#p" />
<use x="50" y="380" xlink:href="#p" />
<use x="60" y="380" xlink:href="#p" />
<use x="70" y="380" xlink:href="#p" />
<use x="80" y="380" xlink:href="#p" />
<use x="100" y="380" xlink:href="#p" />
<use x="130" y="380" xlink:href="#p" />
<use x="140" y="380" xlink:href="#p" />
<use x="180" y="380" xlink:href="#p" />
<use x="210" y="380" xlink:href="#p" />
<use x="220" y="380" xlink:href="#p" />
<use x="230" y="380" xlink:href="#p" />
<use x="240" y="380" xlink:href="#p" />
<use x="270" y="380" xlink:href="#p" />
<use x="280" y="380" xlink:href="#p" />
<use x="310" y="380" xlink:href="#p" />
<use x="330" y="380" xlink:href="#p" />
<use x="340" y="380" xlink:href="#p" />
<use x="350" y="380" xlink:href="#p" />
<use x="360" y="380" xlink:href="#p" />
<use x="370" y="380" xlink:href="#p" />
<use x="380" y="380" xlink:href="#p" />
</g>
</svg>