<?xml version="1.0" encoding="utf-8"?>
<!DOCTYPE svg PUBLIC "-//W3C//DTD SVG 1.0//EN" "http://www.w3.org/TR/2001/REC-SVG-20010904/DTD/svg10.dtd">
<svg xmlns="http://www.w3.org/2000/svg" xml:space="preserve" xmlns:xlink="http://www.w3.org/1999/xlink" width="328" height="328" viewBox="0 0 328 328">
<desc></desc>
<rect width="328" height="328" fill="#ffffff" cx="0" cy="0" />
<defs>
<rect id="p" width="8" height="8" />
</defs>
<g fill="#000000">
<use x="16" y="16" xlink:href="#p" />
<use x="24" y="16" xlink:href="#p" />
<use x="32" y="16" xlink:href="#p" />
<use x="40" y="16" xlink:href="#p" />
<use x="48" y="16" xlink:href="#p" />
<use x="56" y="16" xlink:href="#p" />
<use x="64" y="16" xlink:href="#p" />
<use x="88" y="16" xlink:href="#p" />
<use x="128" y="16" xlink:href="#p" />
<use x="144" y="16" xlink:href="#p" />
<use x="152" y="16" xlink:href="#p" />
<use x="160" y="16" xlink:href="#p" />
<use x="168" y="16" xlink:href="#p" />
<use x="200" y="16" xlink:href="#p" />
<use x="224" y="16" xlink:href="#p" />
<use x="240" y="16" xlink:href="#p" />
<use x="256" y="16" xlink:href="#p" />
<use x="264" y="16" xlink:href="#p" />
<use x="272" y="16" xlink:href="#p" />
<use x="280" y="16" xlink:href="#p" />
<use x="288" y="16" xlink:href="#p" />
<use x="296" y="16" xlink:href="#p" />
<use x="304" y="16" xlink:href="#p" />
<use x="16" y="24" xlink:href="#p" />
<use x="64" y="24" xlink:href="#p" />
<use x="80" y="24" xlink:href="#p" />
<use x="88" y="24" xlink:href="#p" />
<use x="104" y="24" xlink:href="#p" />
<use x="112" y="24" xlink:href="#p" />
<use x="120" y="24" xlink:href="#p" />
<use x="136" y="24" xlink:href="#p" />
<use x="144" y="24" xlink:href="#p" />
<use x="152" y="24" xlink:href="#p" />
<use x="176" y="24" xlink:href="#p" />
<use x="184" y="24" xlink:href="#p" />
<use x="192" y="24" xlink:href="#p" />
<use x="208" y="24" xlink:href="#p" />
<use x="232" y="24" xlink:href="#p" />
<use x="256" y="24" xlink:href="#p" />
<use x="304" y="24" xlink:href="#p" />
<use x="16" y="32" xlink:href="#p" />
<use x="32" y="32" xlink:href="#p" />
<use x="40" y="32" xlink:href="#p" />
<use x="48" y="32" xlink:href="#p" />
<use x="64" y="32" xlink:href="#p" />
<use x="88" y="32" xlink:href="#p" />
<use x="96" y="32" xlink:href="#p" />
<use x="104" y="32" xlink:href="#p" />
<use x="144" y="32" xlink:href="#p" />
<use x="160" y="32" xlink:href="#p" />
<use x="184" y="32" xlink:href="#p" />
<use x="192" y="32" xlink:href="#p" />
<use x="200" y="32" xlink:href="#p" />
<use x="232" y="32" xlink:href="#p" />
<use x="256" y="32" xlink:href="#p" />
<use x="272" y="32" xlink:href="#p" />
<use x="280" y="32" xlink:href="#p" />
<use x="288" y="32" xlink:href="#p" />
<use x="304" y="32" xlink:href="#p" />
<use x="16" y="40" xlink:href="#p" />
<use x="32" y="40" xlink:href="#p" />
<use x="40" y="40" xlink:href="#p" />
<use x="48" y="40" xlink:href="#p" />
<use x="64" y="40" xlink:href="#p" />
<use x="80" y="40" xlink:href="#p" />
<use x="88" y="40" xlink:href="#p" />
<use x="104" y="40" xlink:href="#p" />
<use x="128" y="40" xlink:href="#p" />
<use x="152" y="40" xlink:href="#p" />
<use x="192" y="40" xlink:href="#p" />
<use x="200" y="40" xlink:href="#p" />
<use x="208" y="40" xlink:href="#p" />
<use x="216" y="40" xlink:href="#p" />
<use x="224" y="40" xlink:href="#p" />
<use x="232" y="40" xlink:href="#p" />
<use x="240" y="40" xlink:href="#p" />
<use x="256" y="40" xlink:href="#p" />
<use x="272" y="40" xlink:href="#p" />
<use x="280" y="40" xlink:href="#p" />
<use x="288" y="40" xlink:href="#p" />
<use x="304" y="40" xlink:href="#p" />
<use x="16" y="48" xlink:href="#p" />
<use x="32" y="48" xlink:href="#p" />
<use x="40" y="48" xlink:href="#p" />
<use x="48" y="48" xlink:href="#p" />
<use x="64" y="48" xlink:href="#p" />
<use x="96" y="48" xlink:href="#p" />
<use x="112" y="48" xlink:href="#p" />
<use x="120" y="48" xlink:href="#p" />
<use x="128" y="48" xlink:href="#p" />
<use x="144" y="48" xlink:href="#p" />
<use x="160" y="48" xlink:href="#p" />
<use x="168" y="48" xlink:href="#p" />
<use x="176" y="48" xlink:href="#p" />
<use x="200" y="48" xlink:href="#p" />
<use x="208" y="48" xlink:href="#p" />
<use x="224" y="48" xlink:href="#p" />
<use x="240" y="48" xlink:href="#p" />
<use x="256" y="48" xlink:href="#p" />
<use x="272" y="48" xlink:href="#p" />
<use x="280" y="48" xlink:href="#p" />
<use x="288" y="48" xlink:href="#p" />
<use x="304" y="48" xlink:href="#p" />
<use x="16" y="56" xlink:href="#p" />
<use x="64" y="56" xlink:href="#p" />
<use x="80" y="56" xlink:href="#p" />
<use x="96" y="56" xlink:href="#p" />
<use x="120" y="56" xlink:href="#p" />
<use x="128" y="56" xlink:href="#p" />
<use x="136" y="56" xlink:href="#p" />
<use x="160" y="56" xlink:href="#p" />
<use x="176" y="56" xlink:href="#p" />
<use x="184" y="56" xlink:href="#p" />
<use x="216" y="56" xlink:href="#p" />
<use x="232" y="56" xlink:href="#p" />
<use x="240" y="56" xlink:href="#p" />
<use x="256" y="56" xlink:href="#p" />
<use x="304" y="56" xlink:href="#p" />
<use x="16" y="64" xlink:href="#p" />
<use x="24" y="64" xlink:href="#p" />
<use x="32" y="64" xlink:href="#p" />
<use x="40" y="64" xlink:href="#p" />
<use x="48" y="64" xlink:href="#p" />
<use x="56" y="64" xlink:href="#p" />
<use x="64" y="64" xlink:href="#p" />
<use x="80" y="64" xlink:href="#p" />
<use x="96" y="64" xlink:href="#p" />
<use x="112" y="64" xlink:href="#p" />
<use x="128" y="64" xlink:href="#p" />
<use x="144" y="64" xlink:href="#p" />
<use x="160" y="64" xlink:href="#p" />
<use x="176" y="64" xlink:href="#p" />
<use x="192" y="64" xlink:href="#p" />
<use x="208" y="64" xlink:href="#p" />
<use x="224" y="64" xlink:href="#p" />
<use x="240" y="64" xlink:href="#p" />
<use x="256" y="64" xlink:href="#p" />
<use x="264" y="64" xlink:href="#p" />
<use x="272" y="64" xlink:href="#p" />
<use x="280" y="64" xlink:href="#p" />
<use x="288" y="64" xlink:href="#p" />
<use x="296" y="64" xlink:href="#p" />
<use x="304" y="64" xlink:href="#p" />
<use x="112" y="72" xlink:href="#p" />
<use x="128" y="72" xlink:href="#p" />
<use x="144" y="72" xlink:href="#p" />
<use x="168" y="72" xlink:href="#p" />
<use x="176" y="72" xlink:href="#p" />
<use x="184" y="72" xlink:href="#p" />
<use x="192" y="72" xlink:href="#p" />
<use x="224" y="72" xlink:href="#p" />
<use x="232" y="72" xlink:href="#p" />
<use x="16" y="80" xlink:href="#p" />
<use x="24" y="80" xlink:href="#p" />
<use x="32" y="80" xlink:href="#p" />
<use x="40" y="80" xlink:href="#p" />
<use x="48" y="80" xlink:href="#p" />
<use x="64" y="80" xlink:href="#p" />
<use x="72" y="80" xlink:href="#p" />
<use x="80" y="80" xlink:href="#p" />
<use x="88" y="80" xlink:href="#p" />
<use x="96" y="80" xlink:href="#p" />
<use x="112" y="80" xlink:href="#p" />
<use x="120" y="80" xlink:href="#p" />
<use x="128" y="80" xlink:href="#p" />
<use x="136" y="80" xlink:href="#p" />
<use x="152" y="80" xlink:href="#p" />
<use x="176" y="80" xlink:href="#p" />
<use x="192" y="80" xlink:href="#p" />
<use x="200" y="80" xlink:href="#p" />
<use x="208" y="80" xlink:href="#p" />
<use x="216" y="80" xlink:href="#p" />
<use x="232" y="80" xlink:href="#p" />
<use x="248" y="80" xlink:href="#p" />
<use x="264" y="80" xlink:href="#p" />
<use x="280" y="80" xlink:href="#p" />
<use x="296" y="80" xlink:href="#p" />
<use x="32" y="88" xlink:href="#p" />
<use x="40" y="88" xlink:href="#p" />
<use x="48" y="88" xlink:href="#p" />
<use x="80" y="88" xlink:href="#p" />
<use x="88" y="88" xlink:href="#p" />
<use x="144" y="88" xlink:href="#p" />
<use x="168" y="88" xlink:href="#p" />
<use x="176" y="88" xlink:href="#p" />
<use x="184" y="88" xlink:href="#p" />
<use x="200" y="88" xlink:href="#p" />
<use x="216" y="88" xlink:href="#p" />
<use x="240" y="88" xlink:href="#p" />
<use x="264" y="88" xlink:href="#p" />
<use x="280" y="88" xlink:href="#p" />
<use x="288" y="88" xlink:href="#p" />
<use x="296" y="88" xlink:href="#p" />
<use x="32" y="96" xlink:href="#p" />
<use x="40" y="96" xlink:href="#p" />
<use x="56" y="96" xlink:href="#p" />
<use x="64" y="96" xlink:href="#p" />
<use x="80" y="96" xlink:href="#p" />
<use x="88" y="96" xlink:href="#p" />
<use x="96" y="96" xlink:href="#p" />
<use x="104" y="96" xlink:href="#p" />
<use x="112" y="96" xlink:href="#p" />
<use x="136" y="96" xlink:href="#p" />
<use x="144" y="96" xlink:href="#p" />
<use x="160" y="96" xlink:href="#p" />
<use x="176" y="96" xlink:href="#p" />
<use x="216" y="96" xlink:href="#p" />
<use x="224" y="96" xlink:href="#p" />
<use x="232" y="96" xlink:href="#p" />
<use x="240" y="96" xlink:href="#p" />
<use x="248" y="96" xlink:href="#p" />
<use x="256" y="96" xlink:href="#p" />
<use x="280" y="96" xlink:href="#p" />
<use x="288" y="96" xlink:href="#p" />
<use x="304" y="96" xlink:href="#p" />
<use x="16" y="104" xlink:href="#p" />
<use x="24" y="104" xlink:href="#p" />
<use x="56" y="104" xlink:href="#p" />
<use x="72" y="104" xlink:href="#p" />
<use x="80" y="104" xlink:href="#p" />
<use x="88" y="104" xlink:href="#p" />
<use x="104" y="104" xlink:href="#p" />
<use x="128" y="104" xlink:href="#p" />
<use x="144" y="104" xlink:href="#p" />
<use x="160" y="104" xlink:href="#p" />
<use x="184" y="104" xlink:href="#p" />
<use x="192" y="104" xlink:href="#p" />
<use x="200" y="104" xlink:href="#p" />
<use x="224" y="104" xlink:href="#p" />
<use x="240" y="104" xlink:href="#p" />
<use x="248" y="104" xlink:href="#p" />
<use x="256" y="104" xlink:href="#p" />
<use x="264" y="104" xlink:href="#p" />
<use x="272" y="104" xlink:href="#p" />
<use x="280" y="104" xlink:href="#p" />
<use x="296" y="104" xlink:href="#p" />
<use x="16" y="112" xlink:href="#p" />
<use x="40" y="112" xlink:href="#p" />
<use x="56" y="112" xlink:href="#p" />
<use x="64" y="112" xlink:href="#p" />
<use x="72" y="112" xlink:href="#p" />
<use x="80" y="112" xlink:href="#p" />
<use x="88" y="112" xlink:href="#p" />
<use x="104" y="112" xlink:href="#p" />
<use x="120" y="112" xlink:href="#p" />
<use x="128" y="112" xlink:href="#p" />
<use x="144" y="112" xlink:href="#p" />
<use x="152" y="112" xlink:href="#p" />
<use x="192" y="112" xlink:href="#p" />
<use x="200" y="112" xlink:href="#p" />
<use x="208" y="112" xlink:href="#p" />
<use x="216" y="112" xlink:href="#p" />
<use x="224" y="112" xlink:href="#p" />
<use x="256" y="112" xlink:href="#p" />
<use x="272" y="112" xlink:href="#p" />
<use x="280" y="112" xlink:href="#p" />
<use x="288" y="112" xlink:href="#p" />
<use x="304" y="112" xlink:href="#p" />
<use x="16" y="120" xlink:href="#p" />
<use x="24" y="120" xlink:href="#p" />
<use x="32" y="120" xlink:href="#p" />
<use x="40" y="120" xlink:href="#p" />
<use x="48" y="120" xlink:href="#p" />
<use x="56" y="120" xlink:href="#p" />
<use x="72" y="120" xlink:href="#p" />
<use x="112" y="120" xlink:href="#p" />
<use x="120" y="120" xlink:href="#p" />
<use x="136" y="120" xlink:href="#p" />
<use x="144" y="120" xlink:href="#p" />
<use x="168" y="120" xlink:href="#p" />
<use x="176" y="120" xlink:href="#p" />
<use x="200" y="120" xlink:href="#p" />
<use x="264" y="120" xlink:href="#p" />
<use x="288" y="120" xlink:href="#p" />
<use x="296" y="120" xlink:href="#p" />
<use x="16" y="128" xlink:href="#p" />
<use x="56" y="128" xlink:href="#p" />
<use x="64" y="128" xlink:href="#p" />
<use x="80" y="128" xlink:href="#p" />
<use x="88" y="128" xlink:href="#p" />
<use x="96" y="128" xlink:href="#p" />
<use x="120" y="128" xlink:href="#p" />
<use x="128" y="128" xlink:href="#p" />
<use x="136" y="128" xlink:href="#p" />
<use x="144" y="128" xlink:href="#p" />
<use x="160" y="128" xlink:href="#p" />
<use x="184" y="128" xlink:href="#p" />
<use x="224" y="128" xlink:href="#p" />
<use x="232" y="128" xlink:href="#p" />
<use x="240" y="128" xlink:href="#p" />
<use x="248" y="128" xlink:href="#p" />
<use x="264" y="128" xlink:href="#p" />
<use x="272" y="128" xlink:href="#p" />
<use x="288" y="128" xlink:href="#p" />
<use x="296" y="128" xlink:href="#p" />
<use x="304" y="128" xlink:href="#p" />
<use x="24" y="136" xlink:href="#p" />
<use x="72" y="136" xlink:href="#p" />
<use x="80" y="136" xlink:href="#p" />
<use x="88" y="136" xlink:href="#p" />
<use x="112" y="136" xlink:href="#p" />
<use x="144" y="136" xlink:href="#p" />
<use x="160" y="136" xlink:href="#p" />
<use x="168" y="136" xlink:href="#p" />
<use x="184" y="136" xlink:href="#p" />
<use x="200" y="136" xlink:href="#p" />
<use x="208" y="136" xlink:href="#p" />
<use x="232" y="136" xlink:href="#p" />
<use x="240" y="136" xlink:href="#p" />
<use x="264" y="136" xlink:href="#p" />
<use x="280" y="136" xlink:href="#p" />
<use x="304" y="136" xlink:href="#p" />
<use x="24" y="144" xlink:href="#p" />
<use x="32" y="144" xlink:href="#p" />
<use x="40" y="144" xlink:href="#p" />
<use x="64" y="144" xlink:href="#p" />
<use x="80" y="144" xlink:href="#p" />
<use x="88" y="144" xlink:href="#p" />
<use x="96" y="144" xlink:href="#p" />
<use x="112" y="144" xlink:href="#p" />
<use x="120" y="144" xlink:href="#p" />
<use x="128" y="144" xlink:href="#p" />
<use x="152" y="144" xlink:href="#p" />
<use x="160" y="144" xlink:href="#p" />
<use x="168" y="144" xlink:href="#p" />
<use x="176" y="144" xlink:href="#p" />
<use x="192" y="144" xlink:href="#p" />
<use x="208" y="144" xlink:href="#p" />
<use x="216" y="144" xlink:href="#p" />
<use x="224" y="144" xlink:href="#p" />
<use x="232" y="144" xlink:href="#p" />
<use x="248" y="144" xlink:href="#p" />
<use x="256" y="144" xlink:href="#p" />
<use x="272" y="144" xlink:href="#p" />
<use x="280" y="144" xlink:href="#p" />
<use x="288" y="144" xlink:href="#p" />
<use x="304" y="144" xlink:href="#p" />
<use x="16" y="152" xlink:href="#p" />
<use x="24" y="152" xlink:href="#p" />
<use x="32" y="152" xlink:href="#p" />
<use x="56" y="152" xlink:href="#p" />
<use x="88" y="152" xlink:href="#p" />
<use x="96" y="152" xlink:href="#p" />
<use x="144" y="152" xlink:href="#p" />
<use x="152" y="152" xlink:href="#p" />
<use x="160" y="152" xlink:href="#p" />
<use x="168" y="152" xlink:href="#p" />
<use x="176" y="152" xlink:href="#p" />
<use x="200" y="152" xlink:href="#p" />
<use x="240" y="152" xlink:href="#p" />
<use x="264" y="152" xlink:href="#p" />
<use x="288" y="152" xlink:href="#p" />
<use x="296" y="152" xlink:href="#p" />
<use x="24" y="160" xlink:href="#p" />
<use x="32" y="160" xlink:href="#p" />
<use x="40" y="160" xlink:href="#p" />
<use x="56" y="160" xlink:href="#p" />
<use x="64" y="160" xlink:href="#p" />
<use x="72" y="160" xlink:href="#p" />
<use x="80" y="160" xlink:href="#p" />
<use x="88" y="160" xlink:href="#p" />
<use x="104" y="160" xlink:href="#p" />
<use x="112" y="160" xlink:href="#p" />
<use x="128" y="160" xlink:href="#p" />
<use x="136" y="160" xlink:href="#p" />
<use x="152" y="160" xlink:href="#p" />
<use x="176" y="160" xlink:href="#p" />
<use x="184" y="160" xlink:href="#p" />
<use x="224" y="160" xlink:href="#p" />
<use x="232" y="160" xlink:href="#p" />
<use x="256" y="160" xlink:href="#p" />
<use x="264" y="160" xlink:href="#p" />
<use x="272" y="160" xlink:href="#p" />
<use x="288" y="160" xlink:href="#p" />
<use x="296" y="160" xlink:href="#p" />
<use x="304" y="160" xlink:href="#p" />
<use x="16" y="168" xlink:href="#p" />
<use x="24" y="168" xlink:href="#p" />
<use x="72" y="168" xlink:href="#p" />
<use x="104" y="168" xlink:href="#p" />
<use x="136" y="168" xlink:href="#p" />
<use x="144" y="168" xlink:href="#p" />
<use x="160" y="168" xlink:href="#p" />
<use x="184" y="168" xlink:href="#p" />
<use x="192" y="168" xlink:href="#p" />
<use x="224" y="168" xlink:href="#p" />
<use x="248" y="168" xlink:href="#p" />
<use x="264" y="168" xlink:href="#p" />
<use x="272" y="168" xlink:href="#p" />
<use x="304" y="168" xlink:href="#p" />
<use x="16" y="176" xlink:href="#p" />
<use x="24" y="176" xlink:href="#p" />
<use x="48" y="176" xlink:href="#p" />
<use x="64" y="176" xlink:href="#p" />
<use x="72" y="176" xlink:href="#p" />
<use x="80" y="176" xlink:href="#p" />
<use x="88" y="176" xlink:href="#p" />
<use x="104" y="176" xlink:href="#p" />
<use x="120" y="176" xlink:href="#p" />
<use x="128" y="176" xlink:href="#p" />
<use x="136" y="176" xlink:href="#p" />
<use x="144" y="176" xlink:href="#p" />
<use x="152" y="176" xlink:href="#p" />
<use x="192" y="176" xlink:href="#p" />
<use x="200" y="176" xlink:href="#p" />
<use x="216" y="176" xlink:href="#p" />
<use x="224" y="176" xlink:href="#p" />
<use x="232" y="176" xlink:href="#p" />
<use x="240" y="176" xlink:href="#p" />
<use x="248" y="176" xlink:href="#p" />
<use x="256" y="176" xlink:href="#p" />
<use x="272" y="176" xlink:href="#p" />
<use x="288" y="176" xlink:href="#p" />
<use x="296" y="176" xlink:href="#p" />
<use x="304" y="176" xlink:href="#p" />
<use x="16" y="184" xlink:href="#p" />
<use x="32" y="184" xlink:href="#p" />
<use x="40" y="184" xlink:href="#p" />
<use x="56" y="184" xlink:href="#p" />
<use x="80" y="184" xlink:href="#p" />
<use x="88" y="184" xlink:href="#p" />
<use x="96" y="184" xlink:href="#p" />
<use x="112" y="184" xlink:href="#p" />
<use x="128" y="184" xlink:href="#p" />
<use x="144" y="184" xlink:href="#p" />
<use x="152" y="184" xlink:href="#p" />
<use x="160" y="184" xlink:href="#p" />
<use x="168" y="184" xlink:href="#p" />
<use x="176" y="184" xlink:href="#p" />
<use x="200" y="184" xlink:href="#p" />
<use x="208" y="184" xlink:href="#p" />
<use x="224" y="184" xlink:href="#p" />
<use x="240" y="184" xlink:href="#p" />
<use x="264" y="184" xlink:href="#p" />
<use x="280" y="184" xlink:href="#p" />
<use x="296" y="184" xlink:href="#p" />
<use x="24" y="192" xlink:href="#p" />
<use x="64" y="192" xlink:href="#p" />
<use x="72" y="192" xlink:href="#p" />
<use x="80" y="192" xlink:href="#p" />
<use x="120" y="192" xlink:href="#p" />
<use x="136" y="192" xlink:href="#p" />
<use x="144" y="192" xlink:href="#p" />
<use x="176" y="192" xlink:href="#p" />
<use x="192" y="192" xlink:href="#p" />
<use x="208" y="192" xlink:href="#p" />
<use x="224" y="192" xlink:href="#p" />
<use x="232" y="192" xlink:href="#p" />
<use x="240" y="192" xlink:href="#p" />
<use x="248" y="192" xlink:href="#p" />
<use x="264" y="192" xlink:href="#p" />
<use x="272" y="192" xlink:href="#p" />
<use x="280" y="192" xlink:href="#p" />
<use x="296" y="192" xlink:href="#p" />
<use x="304" y="192" xlink:href="#p" />
<use x="40" y="200" xlink:href="#p" />
<use x="56" y="200" xlink:href="#p" />
<use x="80" y="200" xlink:href="#p" />
<use x="88" y="200" xlink:href="#p" />
<use x="96" y="200" xlink:href="#p" />
<use x="112" y="200" xlink:href="#p" />
<use x="160" y="200" xlink:href="#p" />
<use x="168" y="200" xlink:href="#p" />
<use x="184" y="200" xlink:href="#p" />
<use x="240" y="200" xlink:href="#p" />
<use x="248" y="200" xlink:href="#p" />
<use x="264" y="200" xlink:href="#p" />
<use x="272" y="200" xlink:href="#p" />
<use x="304" y="200" xlink:href="#p" />
<use x="32" y="208" xlink:href="#p" />
<use x="56" y="208" xlink:href="#p" />
<use x="64" y="208" xlink:href="#p" />
<use x="72" y="208" xlink:href="#p" />
<use x="112" y="208" xlink:href="#p" />
<use x="120" y="208" xlink:href="#p" />
<use x="128" y="208" xlink:href="#p" />
<use x="136" y="208" xlink:href="#p" />
<use x="152" y="208" xlink:href="#p" />
<use x="168" y="208" xlink:href="#p" />
<use x="192" y="208" xlink:href="#p" />
<use x="208" y="208" xlink:href="#p" />
<use x="216" y="208" xlink:href="#p" />
<use x="224" y="208" xlink:href="#p" />
<use x="248" y="208" xlink:href="#p" />
<use x="256" y="208" xlink:href="#p" />
<use x="272" y="208" xlink:href="#p" />
<use x="280" y="208" xlink:href="#p" />
<use x="288" y="208" xlink:href="#p" />
<use x="296" y="208" xlink:href="#p" />
<use x="304" y="208" xlink:href="#p" />
<use x="16" y="216" xlink:href="#p" />
<use x="24" y="216" xlink:href="#p" />
<use x="32" y="216" xlink:href="#p" />
<use x="48" y="216" xlink:href="#p" />
<use x="72" y="216" xlink:href="#p" />
<use x="88" y="216" xlink:href="#p" />
<use x="96" y="216" xlink:href="#p" />
<use x="120" y="216" xlink:href="#p" />
<use x="144" y="216" xlink:href="#p" />
<use x="152" y="216" xlink:href="#p" />
<use x="160" y="216" xlink:href="#p" />
<use x="168" y="216" xlink:href="#p" />
<use x="176" y="216" xlink:href="#p" />
<use x="184" y="216" xlink:href="#p" />
<use x="200" y="216" xlink:href="#p" />
<use x="240" y="216" xlink:href="#p" />
<use x="264" y="216" xlink:href="#p" />
<use x="288" y="216" xlink:href="#p" />
<use x="296" y="216" xlink:href="#p" />
<use x="16" y="224" xlink:href="#p" />
<use x="48" y="224" xlink:href="#p" />
<use x="64" y="224" xlink:href="#p" />
<use x="72" y="224" xlink:href="#p" />
<use x="104" y="224" xlink:href="#p" />
<use x="112" y="224" xlink:href="#p" />
<use x="120" y="224" xlink:href="#p" />
<use x="128" y="224" xlink:href="#p" />
<use x="136" y="224" xlink:href="#p" />
<use x="144" y="224" xlink:href="#p" />
<use x="160" y="224" xlink:href="#p" />
<use x="176" y="224" xlink:href="#p" />
<use x="184" y="224" xlink:href="#p" />
<use x="232" y="224" xlink:href="#p" />
<use x="248" y="224" xlink:href="#p" />
<use x="264" y="224" xlink:href="#p" />
<use x="272" y="224" xlink:href="#p" />
<use x="280" y="224" xlink:href="#p" />
<use x="296" y="224" xlink:href="#p" />
<use x="304" y="224" xlink:href="#p" />
<use x="16" y="232" xlink:href="#p" />
<use x="32" y="232" xlink:href="#p" />
<use x="56" y="232" xlink:href="#p" />
<use x="72" y="232" xlink:href="#p" />
<use x="88" y="232" xlink:href="#p" />
<use x="104" y="232" xlink:href="#p" />
<use x="128" y="232" xlink:href="#p" />
<use x="136" y="232" xlink:href="#p" />
<use x="176" y="232" xlink:href="#p" />
<use x="184" y="232" xlink:href="#p" />
<use x="192" y="232" xlink:href="#p" />
<use x="208" y="232" xlink:href="#p" />
<use x="224" y="232" xlink:href="#p" />
<use x="232" y="232" xlink:href="#p" />
<use x="240" y="232" xlink:href="#p" />
<use x="248" y="232" xlink:href="#p" />
<use x="256" y="232" xlink:href="#p" />
<use x="264" y="232" xlink:href="#p" />
<use x="304" y="232" xlink:href="#p" />
<use x="16" y="240" xlink:href="#p" />
<use x="32" y="240" xlink:href="#p" />
<use x="40" y="240" xlink:href="#p" />
<use x="64" y="240" xlink:href="#p" />
<use x="104" y="240" xlink:href="#p" />
<use x="120" y="240" xlink:href="#p" />
<use x="128" y="240" xlink:href="#p" />
<use x="152" y="240" xlink:href="#p" />
<use x="176" y="240" xlink:href="#p" />
<use x="192" y="240" xlink:href="#p" />
<use x="200" y="240" xlink:href="#p" />
<use x="208" y="240" xlink:href="#p" />
<use x="216" y="240" xlink:href="#p" />
<use x="224" y="240" xlink:href="#p" />
<use x="232" y="240" xlink:href="#p" />
<use x="240" y="240" xlink:href="#p" />
<use x="248" y="240" xlink:href="#p" />
<use x="256" y="240" xlink:href="#p" />
<use x="264" y="240" xlink:href="#p" />
<use x="272" y="240" xlink:href="#p" />
<use x="280" y="240" xlink:href="#p" />
<use x="288" y="240" xlink:href="#p" />
<use x="80" y="248" xlink:href="#p" />
<use x="112" y="248" xlink:href="#p" />
<use x="120" y="248" xlink:href="#p" />
<use x="144" y="248" xlink:href="#p" />
<use x="152" y="248" xlink:href="#p" />
<use x="160" y="248" xlink:href="#p" />
<use x="168" y="248" xlink:href="#p" />
<use x="176" y="248" xlink:href="#p" />
<use x="184" y="248" xlink:href="#p" />
<use x="192" y="248" xlink:href="#p" />
<use x="200" y="248" xlink:href="#p" />
<use x="216" y="248" xlink:href="#p" />
<use x="240" y="248" xlink:href="#p" />
<use x="272" y="248" xlink:href="#p" />
<use x="280" y="248" xlink:href="#p" />
<use x="16" y="256" xlink:href="#p" />
<use x="24" y="256" xlink:href="#p" />
<use x="32" y="256" xlink:href="#p" />
<use x="40" y="256" xlink:href="#p" />
<use x="48" y="256" xlink:href="#p" />
<use x="56" y="256" xlink:href="#p" />
<use x="64" y="256" xlink:href="#p" />
<use x="80" y="256" xlink:href="#p" />
<use x="88" y="256" xlink:href="#p" />
<use x="96" y="256" xlink:href="#p" />
<use x="136" y="256" xlink:href="#p" />
<use x="152" y="256" xlink:href="#p" />
<use x="240" y="256" xlink:href="#p" />
<use x="256" y="256" xlink:href="#p" />
<use x="272" y="256" xlink:href="#p" />
<use x="296" y="256" xlink:href="#p" />
<use x="304" y="256" xlink:href="#p" />
<use x="16" y="264" xlink:href="#p" />
<use x="64" y="264" xlink:href="#p" />
<use x="112" y="264" xlink:href="#p" />
<use x="128" y="264" xlink:href="#p" />
<use x="136" y="264" xlink:href="#p" />
<use x="144" y="264" xlink:href="#p" />
<use x="160" y="264" xlink:href="#p" />
<use x="168" y="264" xlink:href="#p" />
<use x="176" y="264" xlink:href="#p" />
<use x="184" y="264" xlink:href="#p" />
<use x="200" y="264" xlink:href="#p" />
<use x="224" y="264" xlink:href="#p" />
<use x="240" y="264" xlink:href="#p" />
<use x="272" y="264" xlink:href="#p" />
<use x="296" y="264" xlink:href="#p" />
<use x="16" y="272" xlink:href="#p" />
<use x="32" y="272" xlink:href="#p" />
<use x="40" y="272" xlink:href="#p" />
<use x="48" y="272" xlink:href="#p" />
<use x="64" y="272" xlink:href="#p" />
<use x="80" y="272" xlink:href="#p" />
<use x="88" y="272" xlink:href="#p" />
<use x="112" y="272" xlink:href="#p" />
<use x="120" y="272" xlink:href="#p" />
<use x="128" y="272" xlink:href="#p" />
<use x="136" y="272" xlink:href="#p" />
<use x="152" y="272" xlink:href="#p" />
<use x="168" y="272" xlink:href="#p" />
<use x="192" y="272" xlink:href="#p" />
<use x="200" y="272" xlink:href="#p" />
<use x="216" y="272" xlink:href="#p" />
<use x="224" y="272" xlink:href="#p" />
<use x="232" y="272" xlink:href="#p" />
<use x="240" y="272" xlink:href="#p" />
<use x="248" y="272" xlink:href="#p" />
<use x="256" y="272" xlink:href="#p" />
<use x="264" y="272" xlink:href="#p" />
<use x="272" y="272" xlink:href="#p" />
<use x="288" y="272" xlink:href="#p" />
<use x="296" y="272" xlink:href="#p" />
<use x="16" y="280" xlink:href="#p" />
<use x="32" y="280" xlink:href="#p" />
<use x="40" y="280" xlink:href="#p" />
<use x="48" y="280" xlink:href="#p" />
<use x="64" y="280" xlink:href="#p" />
<use x="80" y="280" xlink:href="#p" />
<use x="88" y="280" xlink:href="#p" />
<use x="144" y="280" xlink:href="#p" />
<use x="160" y="280" xlink:href="#p" />
<use x="168" y="280" xlink:href="#p" />
<use x="176" y="280" xlink:href="#p" />
<use x="200" y="280" xlink:href="#p" />
<use x="208" y="280" xlink:href="#p" />
<use x="216" y="280" xlink:href="#p" />
<use x="240" y="280" xlink:href="#p" />
<use x="256" y="280" xlink:href="#p" />
<use x="272" y="280" xlink:href="#p" />
<use x="280" y="280" xlink:href="#p" />
<use x="288" y="280" xlink:href="#p" />
<use x="296" y="280" xlink:href="#p" />
<use x="304" y="280" xlink:href="#p" />
<use x="16" y="288" xlink:href="#p" />
<use x="32" y="288" xlink:href="#p" />
<use x="40" y="288" xlink:href="#p" />
<use x="48" y="288" xlink:href="#p" />
<use x="64" y="288" xlink:href="#p" />
<use x="80" y="288" xlink:href="#p" />
<use x="88" y="288" xlink:href="#p" />
<use x="104" y="288" xlink:href="#p" />
<use x="112" y="288" xlink:href="#p" />
<use x="128" y="288" xlink:href="#p" />
<use x="136" y="288" xlink:href="#p" />
<use x="144" y="288" xlink:href="#p" />
<use x="160" y="288" xlink:href="#p" />
<use x="176" y="288" xlink:href="#p" />
<use x="184" y="288" xlink:href="#p" />
<use x="224" y="288" xlink:href="#p" />
<use x="232" y="288" xlink:href="#p" />
<use x="264" y="288" xlink:href="#p" />
<use x="296" y="288" xlink:href="#p" />
<use x="304" y="288" xlink:href="#p" />
<use x="16" y="296" xlink:href="#p" />
<use x="64" y="296" xlink:href="#p" />
<use x="80" y="296" xlink:href="#p" />
<use x="96" y="296" xlink:href="#p" />
<use x="104" y="296" xlink:href="#p" />
<use x="144" y="296" xlink:href="#p" />
<use x="168" y="296" xlink:href="#p" />
<use x="176" y="296" xlink:href="#p" />
<use x="184" y="296" xlink:href="#p" />
<use x="192" y="296" xlink:href="#p" />
<use x="200" y="296" xlink:href="#p" />
<use x="208" y="296" xlink:href="#p" />
<use x="240" y="296" xlink:href="#p" />
<use x="248" y="296" xlink:href="#p" />
<use x="272" y="296" xlink:href="#p" />
<use x="280" y="296" xlink:href="#p" />
<use x="304" y="296" xlink:href="#p" />
<use x="16" y="304" xlink:href="#p" />
<use x="24" y="304" xlink:href="#p" />
<use x="32" y="304" xlink:href="#p" />
<use x="40" y="304" xlink:href="#p" />
<use x="48" y="304" xlink:href="#p" />
<use x="56" y="304" xlink:href="#p" />
<use x="64" y="304" xlink:href="#p" />
<use x="80" y="304" xlink:href="#p" />
<use x="104" y="304" xlink:href="#p" />
<use x="112" y="304" xlink:href="#p" />
<use x="144" y="304" xlink:href="#p" />
<use x="168" y="304" xlink:href="#p" />
<use x="176" y="304" xlink:href="#p" />
<use x="184" y="304" xlink:href="#p" />
<use x="192" y="304" xlink:href="#p" />
<use x="216" y="304" xlink:href="#p" />
<use x="224" y="304" xlink:href="#p" />
<use x="248" y="304" xlink:href="#p" />
<use x="264" y="304" xlink:href="#p" />
<use x="272" y="304" xlink:href="#p" />
<use x="280" y="304" xlink:href="#p" />
<use x="288" y="304" xlink:href="#p" />
<use x="296" y="304" xlink:href="#p" />
<use x="304" y="304" xlink:href="#p" />
</g>
</svg>